<svg width="512" height="512" fill="none" xmlns="http://www.w3.org/2000/svg"><path fill="#3E3D3D" d="M422 0h-9v20h9zm0 493h-10v19h10z"/><path fill="#E3E3E3" d="M129 198H90v120h39z"/><g clip-path="url(#clip0)"><path d="M422.06 501.479v-40.313L172.437 264.268c-2.454-2.032-3.923-5.049-3.923-8.268 0-3.138 1.469-6.236 3.923-8.228L422.06 50.814V10.5c0-4.024-2.313-7.725-5.894-9.435-3.621-1.75-7.966-1.328-11.104 1.227l-311.2 245.459a10.7 10.7 0 00-3.922 8.228c0 3.218 1.448 6.256 3.923 8.268l311.199 245.499c3.118 2.514 7.483 2.957 11.104 1.227 3.581-1.73 5.894-5.451 5.894-9.495z" fill="#3E3D3D"/></g><path d="M409 0H90v251l159-126 76-59.5L409 0zm0 512H90V261l159 126 76 59.5 84 65.5z" fill="#E3E3E3"/><path fill="#3D3E3E" d="M374 475h35v37h-35zm0-475h35v32h-35z"/><defs><clipPath id="clip0"><path transform="matrix(-1 0 0 1 512 0)" fill="#fff" d="M0 0h512v512H0z"/></clipPath></defs></svg>