<svg width="512" height="512" fill="none" xmlns="http://www.w3.org/2000/svg"><path fill="#3E3D3D" d="M90 0h9v20h-9zm0 493h10v19H90z"/><path fill="#E3E3E3" d="M383 198h39v120h-39z"/><g clip-path="url(#clip0)"><path d="M89.94 501.479v-40.313l249.623-196.898c2.454-2.032 3.923-5.049 3.923-8.268 0-3.138-1.469-6.236-3.923-8.228L89.94 50.814V10.5c0-4.024 2.313-7.725 5.894-9.435 3.621-1.75 7.966-1.328 11.104 1.227l311.199 245.459a10.697 10.697 0 013.923 8.228c0 3.218-1.448 6.256-3.923 8.268l-311.199 245.5c-3.118 2.514-7.483 2.957-11.104 1.227-3.58-1.73-5.894-5.451-5.894-9.495z" fill="#3E3D3D"/></g><path d="M103 0h319v251L263 125l-76-59.5L103 0zm0 512h319V261L263 387l-76 59.5-84 65.5z" fill="#E3E3E3"/><path fill="#3D3E3E" d="M138 475h-35v37h35zm0-475h-35v32h35z"/><defs><clipPath id="clip0"><path fill="#fff" d="M0 0h512v512H0z"/></clipPath></defs></svg>